<svg xmlns="http://www.w3.org/2000/svg" width="720" height="420" viewBox="0 0 720 420" role="img" aria-labelledby="title desc">
  <title id="title">Balcony garden overview</title>
  <desc id="desc">A stylized balcony with plants, skyline, and a chair.</desc>
  <rect width="720" height="420" fill="#eef8f2"/>
  <rect y="280" width="720" height="140" fill="#d7c3a7"/>
  <rect x="40" y="70" width="640" height="190" rx="24" fill="#d8ecf6"/>
  <rect x="82" y="120" width="120" height="140" fill="#b2d6ea"/>
  <rect x="220" y="100" width="130" height="160" fill="#c5e0ef"/>
  <rect x="368" y="90" width="145" height="170" fill="#b2d6ea"/>
  <rect x="532" y="115" width="100" height="145" fill="#cbe4f2"/>
  <rect x="100" y="245" width="520" height="16" fill="#5a6a64"/>
  <rect x="116" y="255" width="18" height="95" fill="#5a6a64"/>
  <rect x="240" y="255" width="18" height="95" fill="#5a6a64"/>
  <rect x="364" y="255" width="18" height="95" fill="#5a6a64"/>
  <rect x="488" y="255" width="18" height="95" fill="#5a6a64"/>
  <rect x="612" y="255" width="18" height="95" fill="#5a6a64"/>
  <rect x="92" y="305" width="120" height="48" rx="8" fill="#bf7b54"/>
  <rect x="246" y="295" width="120" height="58" rx="8" fill="#a4643e"/>
  <rect x="400" y="300" width="126" height="53" rx="8" fill="#bf7b54"/>
  <rect x="558" y="310" width="74" height="18" rx="9" fill="#735e4e"/>
  <rect x="570" y="328" width="12" height="36" fill="#735e4e"/>
  <rect x="608" y="328" width="12" height="36" fill="#735e4e"/>
  <circle cx="120" cy="302" r="28" fill="#6da96f"/>
  <circle cx="158" cy="292" r="32" fill="#76b575"/>
  <circle cx="188" cy="304" r="24" fill="#5f9d62"/>
  <circle cx="272" cy="286" r="24" fill="#7dbb6c"/>
  <circle cx="300" cy="267" r="30" fill="#5f9d62"/>
  <circle cx="334" cy="288" r="26" fill="#76b575"/>
  <circle cx="434" cy="293" r="28" fill="#76b575"/>
  <circle cx="468" cy="276" r="34" fill="#5f9d62"/>
  <circle cx="504" cy="294" r="24" fill="#88c67f"/>
  <circle cx="602" cy="65" r="26" fill="#fff2ad"/>
</svg>
